<?xml version="1.0" encoding="utf-8"?>
<!-- Generator: Adobe Illustrator 24.1.2, SVG Export Plug-In . SVG Version: 6.00 Build 0)  -->
<svg version="1.1" id="圖層_1" xmlns="http://www.w3.org/2000/svg" xmlns:xlink="http://www.w3.org/1999/xlink" x="0px" y="0px"
	 viewBox="0 0 177.8 45.9" style="enable-background:new 0 0 177.8 45.9;" xml:space="preserve">
<style type="text/css">
	.st0{clip-path:url(#SVGID_2_);fill:#FFFFFF;}
</style>
<g>
	<defs>
		<rect id="SVGID_1_" y="0" width="177.8" height="45.9"/>
	</defs>
	<clipPath id="SVGID_2_">
		<use xlink:href="#SVGID_1_"  style="overflow:visible;"/>
	</clipPath>
	<path class="st0" d="M82.8,13.1c-0.3-0.1-0.6-0.2-0.9-0.2H78c-0.1,0-0.1,0-0.1,0.1c0,0.1,0,0.1,0.1,0.1c0.8,0,1.5,0.1,2,0.4
		c0,0,0,0,0,0c0.6,0.2,1,0.6,1,1v1.1c0,0.5,0,1.1,0,1.7c0,0.3,0,0.6,0,0.8v23.1c0,0.1,0,0.1,0.1,0.1h2.8c0.1,0,0.1,0,0.1-0.1V15.4v0
		c0-0.3,0-0.5-0.1-0.7C83.8,14,83.4,13.3,82.8,13.1"/>
	<path class="st0" d="M109.3,21.6h-2.8c-0.1,0-0.1,0-0.1,0.1v13.9c0,1.2-0.6,2.1-1.6,2.9c-0.3,0.2-0.6,0.4-0.9,0.5
		c-0.9,0.5-2,0.6-2.8,0.5c-0.5,0-1.2,0-1.8-0.2c-0.9-0.3-1.6-0.8-1.9-1.5c-0.3-0.7-0.3-1.5-0.3-2.2V24.2c0-0.3,0-0.5-0.1-0.7
		c-0.1-0.7-0.6-1.3-1.2-1.6c-0.3-0.1-0.6-0.2-0.9-0.2h-3.9c-0.1,0-0.1,0-0.1,0.1s0,0.1,0.1,0.1c0.3,0,0.6,0,0.9,0
		c0.3,0,0.5,0.1,0.8,0.1c0.1,0,0.2,0,0.2,0c0.3,0.1,0.5,0.2,0.7,0.4c0.1,0.1,0.2,0.2,0.3,0.4c0.1,0.3,0.1,0.4,0.1,0.8
		c0,0.2,0,0.6,0,0.8v12c0,2.3,1.5,4.2,3.7,4.8c0.8,0.2,1.8,0.3,2.7,0.3c1.3,0,2.4-0.2,3.4-0.6c1-0.4,1.8-0.7,2.5-1.3h0.1l0.3,1.6
		c0,0,0,0.1,0.1,0.1h2.2c0.1,0,0.1,0,0.1-0.1L109.3,21.6C109.4,21.7,109.3,21.6,109.3,21.6"/>
	<path class="st0" d="M143.8,40.9c-1,0.1-2.8-0.1-3.7-0.6c-0.9-0.5-2.4-1.7-3.4-2.8l-6.1-6.8l7-7.8c0.6-0.6,1.3-1.1,2.1-1.4
		c0.8-0.3,1.7-0.5,2.6-0.5c0.1,0,0.1,0,0.1-0.1c0-0.1,0-0.1-0.1-0.1h-1.5c-1.6,0-2.8,0.2-3.8,0.7c-1,0.5-1.9,1.2-2.8,2.1l-6.1,6.7
		v-15v0c0-0.3,0-0.5-0.1-0.7c-0.1-0.7-0.6-1.4-1.2-1.6c-0.3-0.1-0.6-0.2-0.9-0.2H122c-0.1,0-0.1,0-0.1,0.1c0,0.1,0,0.1,0.1,0.1
		c0.8,0,1.5,0.1,2,0.4c0,0,0,0,0,0c0,0,0,0,0,0c0.6,0.2,1,0.6,1,1v1.1c0,0.5,0,1.1,0,1.7c0,0.3,0,0.6,0,0.8v23.1
		c0,0.1,0,0.1,0.1,0.1h2.8c0.1,0,0.1,0,0.1-0.1v-9.7l5.9,6.7c2,2.3,4.5,3.5,7.4,3.5c1.1,0,1.9-0.1,2.6-0.4c0,0,0.1-0.1,0.1-0.1
		C143.9,40.9,143.8,40.9,143.8,40.9"/>
	<path class="st0" d="M177.7,22.8c-0.1-0.7-0.6-1.4-1.2-1.6c-0.3-0.1-0.6-0.2-0.9-0.2h-3.9c-0.1,0-0.1,0-0.1,0.1
		c0,0.1,0,0.1,0.1,0.1c0.8,0,1.5,0.1,2,0.4c0,0,0,0,0,0c0.6,0.2,1,0.7,1,1.1v2.6c0,0.5,0,1.1,0,1.7c0,0.3,0,0.6,0,0.8v13.4
		c0,0.1,0,0.1,0.1,0.1h2.8c0.1,0,0.1,0,0.1-0.1V23.5v0C177.8,23.2,177.7,23,177.7,22.8"/>
	<path class="st0" d="M161.8,22c-1.5-0.9-3.3-1.4-5.3-1.4c-2,0-3.8,0.5-5.3,1.4s-2.7,2.2-3.5,3.8c-0.8,1.6-1.2,3.4-1.2,5.4
		c0,2,0.4,3.8,1.2,5.4c0.8,1.6,2,2.9,3.5,3.8s3.3,1.4,5.3,1.4c2,0,3.8-0.5,5.3-1.4c1.5-0.9,2.7-2.2,3.5-3.8c0.8-1.6,1.2-3.4,1.2-5.4
		c0-2-0.4-3.8-1.2-5.4C164.5,24.2,163.3,22.9,161.8,22 M163.7,31.1c0,2-0.3,3.8-0.9,5.3c-0.6,1.5-1.4,2.6-2.5,3.5
		c-1.1,0.8-2.4,1.2-3.9,1.2s-2.8-0.4-3.9-1.2c-1.1-0.8-1.9-2-2.5-3.5c-0.6-1.5-0.9-3.3-0.9-5.3c0-2,0.3-3.8,0.9-5.3
		c0.6-1.5,1.4-2.6,2.5-3.5c1.1-0.8,2.4-1.2,3.9-1.2c1.5,0,2.8,0.4,3.9,1.2c1.1,0.8,1.9,2,2.5,3.5C163.5,27.3,163.7,29.1,163.7,31.1"
		/>
	<path class="st0" d="M176.1,17.8c0.9,0,1.7-0.7,1.7-1.7c0-0.9-0.8-1.7-1.7-1.7c-0.9,0-1.7,0.7-1.7,1.7
		C174.4,17.1,175.2,17.8,176.1,17.8"/>
	<path class="st0" d="M64.4,21c-1.2,0-2.2,0.1-3.1,0.3c-0.9,0.2-1.7,0.5-2.6,0.9v-6.8v0c0-0.3,0-0.5-0.1-0.7
		c-0.1-0.7-0.6-1.4-1.2-1.6c-0.3-0.1-0.6-0.2-0.9-0.2h-3.9c-0.1,0-0.1,0-0.1,0.1c0,0.1,0,0.1,0.1,0.1c0.8,0,1.5,0.1,2,0.4
		c0,0,0,0,0,0c0.6,0.2,1,0.6,1,1v1.1c0,0.5,0,1.1,0,1.7c0,0.3,0,0.6,0,0.8v23.1c0,0.1,0,0.1,0.1,0.1h2.8c0.1,0,0.1,0,0.1-0.1v-2
		c0.6,0.6,1.3,1.1,2.2,1.5c1,0.4,2.4,0.7,3.9,0.7c2.7,0,4.8-1,6.3-2.9c1.5-1.9,2.2-4.4,2.2-7.3c0-2.9-0.8-5.4-2.3-7.3
		C69.6,21.9,67.3,21,64.4,21 M58.7,23.1c0.8-0.3,1.6-0.5,2.3-0.7c0.8-0.2,1.6-0.4,2.5-0.4c2.4,0,4.2,0.8,5.4,2.5
		c1.2,1.7,1.7,3.9,1.7,6.6c0,2.7-0.6,4.9-1.7,6.6c-1.1,1.6-2.7,2.5-4.9,2.5c-1.5,0-2.6-0.2-3.6-0.7c-0.7-0.3-1.2-0.8-1.8-1.2V23.1z"
		/>
	<path class="st0" d="M12.7,1c1.1,0.4,1.6,0.9,1.6,1.6v1.9c0,0.9,0,1.9,0,2.8c0,0.5,0,0.9,0,1.3v0.5c0.1-0.1,0.3-0.2,0.5-0.3
		c0.5-0.2,0.9-0.3,1.3-0.3c0.4,0,0.7,0.1,1,0.2C17.6,9,18,9.4,18,10c0,0,0,0.1,0,0.1c0,0,0,0.1,0,0.1c0.5,0.4,0.6,1,0.6,1.2
		c0,0.1,0,0.2,0,0.3c0.1,0.1,0.3,0.2,0.4,0.3V4.1v0c0-0.4,0-0.8-0.1-1.1c-0.2-1.2-0.9-2.2-1.9-2.7C16.7,0.2,16.2,0,15.6,0h-4.2v0.6
		C11.8,0.7,12.3,0.8,12.7,1C12.6,1,12.6,1,12.7,1"/>
	<path class="st0" d="M35.9,19.1c-0.3-0.2-0.6-0.5-0.9-0.6c-0.4-0.2-0.9-0.3-1.5-0.2c-0.3,0.1-0.5,0.2-0.7,0.5
		c-0.1,0.2,0,0.6,0.3,0.8c0.4,0.2,0.6,0.5,0.7,0.9c0,0,0,0.1,0.1,0.1c-0.2,0.1-0.4,0-0.6,0c-0.3-0.1-0.6,0-0.7,0.3
		c-0.1,0.3-0.4,0.5-0.6,0.7c-0.1,0.1-0.2,0.3-0.1,0.5c0,0,0,0.1,0,0.2c-0.2,0.2-0.1,0.4,0,0.6c0.1,0.2,0.2,0.4,0.4,0.5
		c0.2,0.2,0.4,0.4,0.6,0.6c0.1,0,0.1,0.1,0,0.2c-0.3,0.3-1.2,0.3-1.6,0c-0.2-0.2-0.4-0.2-0.7-0.2c-0.5,0-0.8-0.4-0.9-0.9
		c0-0.4,0-0.7,0-1.1c0-0.1,0-0.2-0.1-0.2c-0.2-0.1-0.1-0.2,0-0.3c0.2-0.2,0.5-0.3,0.8-0.4c0,0,0-0.1,0.1,0c0.1-0.3,0.2-0.4,0.6-0.4
		c0.1,0,0.3,0,0.4-0.1c0.2,0,0-0.2,0-0.3c-0.1,0-0.1-0.2-0.1-0.2c-0.1-0.1-0.1-0.2,0-0.3c0.1-0.2-0.1-0.3-0.2-0.3
		c-0.2,0-0.3-0.1-0.5-0.1c-0.1,0,0-0.1,0-0.1c0.1,0,0.2,0,0.3-0.1c-0.1-0.4-0.3-0.7-0.7-0.8c-0.4-0.1-0.6-0.5-0.6-0.8
		c-0.1-0.6-0.4-0.9-0.9-1.1c-0.4-0.2-0.6-0.5-0.3-0.9c0.1-0.1,0-0.2,0-0.3c-0.1-0.3-0.3-0.5-0.4-0.8c0-0.1,0-0.2,0-0.2
		c-2.4-0.7-5.6-1.2-9.3-0.4c0,0-0.1,0-0.1,0c-0.2,0-0.3,0-0.3-0.1c0-0.3-0.1-0.3-0.2-0.4c-0.1-0.1,0-0.3-0.2-0.3
		c-0.2-0.1-0.3,0.2-0.4,0c-0.1-0.2,0-0.2-0.1-0.2c-0.1-0.1-0.1-0.1,0-0.2c0.1-0.1,0.1-0.4,0-0.6c-0.1-0.2-0.1-0.5-0.3-0.6
		C17,11.1,17,11,16.9,11c-0.2,0-0.2,0-0.2-0.1c0.1-0.1,0.2-0.5,0.1-0.7c-0.1-0.2-0.1-0.4-0.5-0.4c-0.3,0-1.1,0-1.8,0.6
		c-0.7,0.5-1.8,1.8-2.4,3c-0.5,1.2-0.7,2.6-1,2.8c-0.4,0.2-1.7,1.2-2.9,2C4.5,20.3,0.7,25.7,0.1,30c-0.8,3.5,2.1,4.7,5.7,3.5
		c1.9-0.7,3.7-1.8,5.3-2.9c-0.1,0-0.2-0.1-0.2-0.2c0-0.1-0.1-0.1-0.2-0.1c-0.3,0-0.7-0.2-1-0.1c-0.5,0.1-0.9-0.1-1.3-0.3
		c-0.4-0.2-0.9-0.4-1.3-0.6c-0.2-0.1-0.4,0-0.6,0c-0.2,0.1-0.4,0.2-0.6,0.3c-0.2,0-0.4,0-0.6,0c-0.4,0-0.5-0.2-0.4-0.6
		c0,0,0-0.1,0-0.1c-0.3-0.3-0.4-0.7-0.3-1.1c0.1-0.3,0.4-0.6,0.6-0.9c0.2-0.2,0.4-0.5,0.3-0.8c0-0.1,0-0.2,0.1-0.4
		c0.1-0.2,0.2-0.3,0-0.5C5.4,25,5.7,24.7,6,24.8c0.3,0.1,0.6,0.2,0.9,0.3c0.3,0.2,0.2,0.4,0.1,0.7c0,0.1-0.1,0.2-0.2,0.3
		c-0.2,0.3-0.1,0.4,0.2,0.6c0.1,0,0.2,0,0.2,0.1c0.2,0.3,0.5,0.2,0.8,0.1c0.3-0.1,0.7,0.1,0.9,0.4c0.1,0.2,0.3,0.5,0.4,0.8
		c0,0.1,0.1,0.1,0.2,0.1c0.3,0,0.5,0.1,0.7,0.3c0.1,0.2,0.3,0.2,0.4,0.2c0.4,0,0.7,0.3,1,0.2c0.1,0,0.2,0,0.3,0
		c0.4-0.3,0.9-0.4,1.4-0.4c0.1,0,0.2,0,0.3-0.1c0.2-0.2,0.5-0.2,0.7-0.3c0.2,0,0.4,0,0.5-0.2c0,0,0.1,0,0.1,0c0.2,0,0.3-0.1,0.3-0.2
		c0-0.2-0.1-0.3-0.3-0.3c-0.3,0-0.6-0.1-0.8-0.4c-0.2-0.2-0.2-0.3,0.1-0.4c0.2,0,0.2-0.2,0.2-0.3c0-0.2,0.1-0.3,0.3-0.3
		c0.1,0,0.3-0.1,0.4-0.2c0.3-0.2,0.6-0.5,0.9-0.8c0.1-0.1,0-0.3,0-0.4c0-0.1-0.1-0.1-0.1-0.2c0.2-0.4,0.1-0.6-0.3-0.7
		c0.2-0.2,0.5-0.2,0.8-0.4c0,0,0.1,0,0.1,0c0.4,0.1,0.5,0.5,0.6,0.9c0,0.5-0.1,1-0.1,1.5c0,0.4,0.3,0.7,0.7,0.7c0.5,0,1-0.2,1.4-0.6
		c0.4-0.4,0.9-0.4,1.4-0.2c0.1,0,0.2,0,0.2,0c0.1-0.1,0.2,0,0.2,0.1c0.1,0.1-0.1,0.1-0.2,0.1c-0.1,0.1-0.2,0.1-0.4,0
		c-0.2-0.1-0.3,0-0.4,0.1c-0.4,0.2-0.8,0.3-1.2,0.4c-0.3,0-0.6,0-0.8,0.3c-0.1,0.1-0.2,0.1-0.3,0.2c-0.6,0.1-0.8,0.5-0.9,1.1
		c0,0.1-0.1,0.3-0.1,0.3c0.4,0.4,1.2,1,2.3,1.5c1.6,0.7,3.5,1.3,4.9,0.8c1.1-0.3,0.3-1.1,0.3-1.3c0-0.2,0.2,0,0.2-0.3
		c0-0.3-0.2-0.8-0.2-0.9c0.1-0.1,0.1-0.5-0.1-0.8c-0.3-0.3-0.5-0.5-0.7-0.6c-0.2-0.1,0,0,0-0.2c-0.5-1.3,0.8-1.9,1.9-1.8
		c1.1,0.1,3.3,0.5,5.1,2.5c0.2,0.3,0.5,0.6,0.7,0.9c0.1,0,0.2,0.1,0.3,0.1c0.5,0.1,1,0.1,1.5,0.1c0.3,0,0.4-0.2,0.5-0.4
		c0.2-0.5,0.5-0.5,0.7-0.1c0.2,0.3,0.5,0.5,0.7,0.7c0.1,0.1,0.3,0.2,0.1,0.5c-0.1,0.2,0.2,0.9,0.4,1c0.3,0.2,0.4,0.3,0.2,0.6
		c-0.1,0.1-0.1,0.1-0.2,0c-0.1-0.5-0.6-0.6-0.9-0.8c-0.2-0.1-0.5-0.2-0.8-0.4c-0.4-0.3-1.1-0.1-1.4,0.4c0,0.1-0.1,0.1-0.1,0.2
		c1,2.3,1,4.9,0.1,7.3c0.1,0.2,0.1,0.3,0,0.5c-0.1,0.2-0.1,0.5-0.2,0.7c0,0.2,0,0.3-0.1,0.4c-0.1,0.1-0.1,0.1,0,0.2
		c0,0.1,0.1,0,0.1,0c0.2,0,0.4,0.1,0.4,0.4c0.1,0,0.1-0.1,0.2-0.2c0,0.2-0.1,0.3-0.2,0.3c-0.1,0.1-0.2,0.1-0.1,0.2
		c0,0.1,0.2,0.1,0.2,0.1c0.2-0.1,0.5-0.1,0.7-0.3c0.1-0.1,0.4-0.1,0.5-0.3c0-0.1,0.1,0,0.1,0.1c0,0.1,0,0.1,0,0.2
		c0,0.2-0.2,0.3,0.2,0.4c0.2,0,0.5,0.2,0.8,0.2c0.6,0.2,0.9,0,1.3-0.5c0,0.2-0.1,0.3-0.2,0.4c-0.3,0.2-0.5,0.4-0.6,0.6
		c-0.1,0.1-0.1,0.1-0.2,0c-0.5-0.3-0.9,0-1.3,0.2c-0.3,0.1-0.5,0.1-0.7,0.1c-0.2,0-0.5,0-0.7,0c-0.3,0-0.5,0.2-0.7,0.3
		c-0.2,0.1-0.4,0.3-0.6,0.2c-0.1,0-0.3,0-0.4,0.1c-0.3,0.3-0.6,0.1-0.9,0c-0.2,0-0.3,0-0.4,0c-0.2,0.1-0.4,0.2-0.6,0.1
		c-2.5,1.5-6,2.1-8.3,0.2c-1.8-1.6-1.9-4.5-1.9-4.8c0-0.3-0.3-0.2-0.3-0.2c0,0,0,0,0,0c0,0-0.1-0.1-0.1-0.1
		c-0.2-0.1-0.2-0.2-0.4-0.3c-0.1-0.1-0.3-0.1-0.3-0.2c0-0.1,0-0.2-0.1-0.4c-0.2-0.1-0.4-0.3-0.2-0.4c0.1-0.1,0-0.3,0.1-0.5
		c0.1-0.2,0.1-0.3,0-0.6c-0.1-0.3,0-0.3-0.2-0.5c-0.2-0.2-0.2-0.3-0.2-0.5c0-0.2-0.2-0.4-0.3-0.5c-0.1-0.1-0.2-0.2-0.2-0.4
		c0-0.2,0.1-0.5,0-0.7c-0.1-0.2-0.1-0.5-0.3-0.6c-0.2-0.1-0.1-0.3-0.1-0.5c0-0.2-0.2-0.4-0.5-0.4c-0.3-0.1-0.5,0.1-0.6,0.3
		c-0.1,0.2-0.4,0.7-0.5,1c-0.1,0.4-0.3,0.9-0.3,1.5c0,0.6-0.1,1.3-0.3,1.6c-0.1,0.2,0.1,0.5-0.2,0.6c-0.2,0.1-0.4,0.1-0.5,0.4
		c-0.2,0.3-0.3,0.6-0.4,0.5c-0.1-0.1-0.4-0.9-0.7-1.1c-0.3-0.2-0.2,0-0.2-0.1c-0.1-0.1-0.2-0.3-0.4-0.2c0,0,0,0,0,0
		c-0.2,0-0.4-0.2-0.4,0.2c0,0.4-0.1,0.3,0,0.8c0,0,0.4,1,1.6,1.9c1.2,1,2.9,2.5,3.7,3.7l0,0c3,3,6.3,4.4,9.5,4.4c0-0.1,0-0.2,0-0.2
		c0,0,0-0.1,0-0.2c0-0.4-0.1-0.8-0.5-1c-0.2-0.1-0.3-0.2-0.6-0.2c-0.1,0-0.3-0.1-0.4-0.2c-0.1-0.1-0.1-0.2,0-0.3
		c0.2-0.1,0.4-0.1,0.6-0.1c0.1,0,0.1,0,0.1,0.1c-0.1,0.4,0.2,0.4,0.5,0.5c0.5,0.2,1,0.2,1.6,0.1c0.4-0.1,0.9-0.2,1.3,0.2
		c0.3,0.3,0.7,0.3,1.1,0.3c0.3,0,0.5,0,0.9,0c0,0,0,0,0.1,0c5.9-2.3,10.3-8.8,9.7-16.1c-0.2-1.7-0.6-5-2.8-8.5
		C36.6,19.7,35.9,19.1,35.9,19.1 M29.5,44.1c0,0.4-0.3,0.5-0.7,0.4c-0.2-0.1-0.5-0.4-0.4-0.5c0.1-0.2,0.3-0.2,0.6-0.2
		c0.1,0,0.3,0.1,0.4,0.1C29.5,43.8,29.6,43.9,29.5,44.1"/>
	<path class="st0" d="M29.8,41.2c0.1,0,0.2,0.1,0.2,0.1c0.1,0,0.2,0,0.3-0.1c0.4-0.1,0.7-0.5,1-0.7c0.2-0.2,0.3-0.5,0.1-0.8
		c-0.1-0.1-0.1-0.2-0.2-0.3c-0.3,0.5-0.6,0.9-1,1.3C30.2,40.9,30,41,29.8,41.2"/>
</g>
</svg>
